<svg width="260" height="170" viewBox="0 0 260 170" fill="none" xmlns="http://www.w3.org/2000/svg">
<rect x="0.5" y="0.5" width="259" height="169" fill="#C0BCBC" stroke="#B0B0B0"/>
<line y1="-0.5" x2="308.614" y2="-0.5" transform="matrix(0.836507 0.547956 -0.838442 0.54499 0.999939 0.652527)" stroke="#B0B0B0"/>
<line y1="-0.5" x2="308.616" y2="-0.5" transform="matrix(-0.836515 0.547945 -0.838435 -0.545001 259.004 0)" stroke="#B0B0B0"/>
<path d="M129.5 104.25C119.144 104.25 110.75 95.8556 110.75 85.5C110.75 75.1444 119.144 66.75 129.5 66.75C139.856 66.75 148.25 75.1444 148.25 85.5C148.25 95.8556 139.856 104.25 129.5 104.25ZM126.916 78.7781C126.803 78.7028 126.672 78.6596 126.537 78.6529C126.401 78.6463 126.267 78.6765 126.147 78.7404C126.027 78.8042 125.927 78.8994 125.857 79.0157C125.787 79.1319 125.75 79.265 125.75 79.4006V91.5994C125.75 91.735 125.787 91.8681 125.857 91.9844C125.927 92.1006 126.027 92.1958 126.147 92.2596C126.267 92.3235 126.401 92.3537 126.537 92.3471C126.672 92.3404 126.803 92.2972 126.916 92.2219L136.064 86.1244C136.167 86.0559 136.252 85.9631 136.31 85.8542C136.368 85.7452 136.399 85.6236 136.399 85.5C136.399 85.3764 136.368 85.2548 136.31 85.1458C136.252 85.0369 136.167 84.9441 136.064 84.8756L126.914 78.7781H126.916Z" fill="black"/>
</svg>
